<?xml version="1.0" encoding="utf-8"?>
<!-- Svg Vector Icons : http://www.onlinewebfonts.com/icon -->
<!DOCTYPE svg PUBLIC "-//W3C//DTD SVG 1.1//EN" "http://www.w3.org/Graphics/SVG/1.1/DTD/svg11.dtd">
<svg version="1.1" xmlns="http://www.w3.org/2000/svg" xmlns:xlink="http://www.w3.org/1999/xlink" x="0px" y="0px" viewBox="0 0 1000 1000" enable-background="new 0 0 1000 1000" xml:space="preserve">
<metadata> Svg Vector Icons : http://www.onlinewebfonts.com/icon </metadata>
<g><path d="M101.4,990c-6.6,0-13.2-2.5-18.2-7.5c-10-10-10-26.3,0-36.3L529.5,500L83.2,53.9c-10-10-10-26.3,0-36.3c10-10,26.3-10.1,36.3,0l464.5,464.3c4.8,4.8,7.5,11.4,7.5,18.2c0,6.8-2.7,13.4-7.5,18.2L119.5,982.5C114.5,987.5,108,990,101.4,990z"/><path d="M434.1,990c-6.6,0-13.2-2.5-18.2-7.5c-10-10-10-26.3,0-36.3L862.3,500L415.9,53.9c-10-10-10-26.3,0-36.3c10-10,26.3-10.1,36.3,0l464.5,464.3c4.8,4.8,7.5,11.4,7.5,18.2c0,6.8-2.7,13.4-7.5,18.2L452.3,982.5C447.3,987.5,440.7,990,434.1,990z"/></g>
</svg>